<svg xmlns="http://www.w3.org/2000/svg" width="17" height="20"><path fill="#333" d="M17.143 15v1.429q0 .29-.212.502t-.502.212h-15.714q-.29 0-.502-.212t-.212-.502v-1.429q0-.29.212-.502t.502-.212h15.714q.29 0 .502.212t.212.502zm0-5.714v1.429q0 .29-.212.502t-.502.212h-15.714q-.29 0-.502-.212t-.212-.502v-1.429q0-.29.212-.502t.502-.212h15.714q.29 0 .502.212t.212.502zm0-5.715v1.429q0 .29-.212.502t-.502.212h-15.714q-.29 0-.502-.212t-.212-.502v-1.429q0-.29.212-.502t.502-.212h15.714q.29 0 .502.212t.212.502z"/></svg>